<svg width="670" height="100" viewBox="0 0 670 100" fill="none" xmlns="http://www.w3.org/2000/svg">
<path d="M611.165 71.688L626.397 29H662.813C663.965 29 664.989 29.192 665.949 29.512C666.845 29.896 667.613 30.344 668.189 30.984C668.701 31.624 669.085 32.456 669.213 33.352C669.341 34.248 669.149 35.272 668.765 36.424L666.205 43.592C665.565 45.128 664.733 46.408 663.645 47.496C662.493 48.648 661.213 49.48 659.805 50.056C660.701 50.632 661.405 51.4 661.789 52.424C662.173 53.448 662.173 54.664 661.725 56.008L658.781 64.264C657.885 66.568 656.413 68.424 654.301 69.704C652.189 71.048 649.949 71.688 647.581 71.688H611.165ZM634.077 44.616H652.573L654.045 40.52H635.549L634.077 44.616ZM628.573 60.168H647.069L648.477 56.136H629.981L628.573 60.168Z" fill="#F1F1F1"/>
<path d="M595.024 60.168L606.096 29H619.344L606.736 64.264C605.84 66.568 604.368 68.424 602.256 69.704C600.144 71.048 597.904 71.688 595.536 71.688H567.696C566.544 71.688 565.456 71.56 564.56 71.176C563.664 70.856 562.896 70.344 562.384 69.704C561.808 69.064 561.424 68.296 561.296 67.4C561.168 66.504 561.296 65.416 561.744 64.264L574.352 29H587.6L576.528 60.168H595.024Z" fill="#F1F1F1"/>
<path d="M507.075 71.688L522.307 29H558.723C559.875 29 560.899 29.192 561.859 29.512C562.755 29.896 563.523 30.344 564.099 30.984C564.611 31.624 564.995 32.456 565.123 33.352C565.251 34.248 565.059 35.272 564.675 36.424L558.659 53.256C558.211 54.408 557.571 55.496 556.803 56.392C556.035 57.288 555.139 58.056 554.115 58.696C553.091 59.336 552.003 59.848 550.851 60.168C549.699 60.552 548.547 60.68 547.395 60.68H524.227L520.323 71.688H507.075ZM528.387 49.16H546.883L549.955 40.52H531.459L528.387 49.16Z" fill="#F1F1F1"/>
<path d="M490.94 60.1689H504.188L500.028 71.6889H486.78L490.94 60.1689Z" fill="#F1F1F1"/>
<path d="M472.239 55.624L469.743 47.368H488.431L479.727 71.688H443.311C442.159 71.688 441.071 71.56 440.175 71.176C439.279 70.856 438.511 70.344 437.999 69.704C437.423 69.064 437.039 68.296 436.911 67.4C436.783 66.504 436.911 65.416 437.359 64.264L447.343 36.424C448.175 34.12 449.647 32.328 451.759 30.984C453.871 29.704 456.111 29 458.543 29H490.991L489.327 33.672C489.071 34.44 488.687 35.208 488.303 35.976C487.919 36.744 487.471 37.512 486.959 38.152C486.447 38.856 485.871 39.432 485.295 39.88C484.655 40.328 484.079 40.52 483.439 40.52H459.119L452.143 60.168H470.639L472.239 55.624Z" fill="#F1F1F1"/>
<path d="M381.628 71.688L396.86 29H410.94L420.988 52.04H421.436L429.692 29H442.94L427.708 71.688H413.564L403.516 48.712H403.068L394.876 71.688H381.628Z" fill="#F1F1F1"/>
<path d="M361.271 71.688L376.503 29H389.751L374.52 71.688H361.271Z" fill="#F1F1F1"/>
<path d="M308.101 71.688L323.333 29H337.413L347.461 52.04H347.909L356.165 29H369.413L354.181 71.688H340.037L329.989 48.712H329.541L321.349 71.688H308.101Z" fill="#F1F1F1"/>
<path d="M271.254 40.52L275.35 29H316.31L314.646 33.672C314.39 34.44 314.006 35.208 313.622 35.976C313.238 36.744 312.79 37.512 312.278 38.152C311.766 38.856 311.19 39.432 310.614 39.88C309.974 40.328 309.398 40.52 308.758 40.52H298.326L287.19 71.688H273.942L285.078 40.52H271.254Z" fill="#F1F1F1"/>
<path d="M208.073 71.688L223.305 29H236.553L230.985 44.616H249.481L255.049 29H268.297L253.065 71.688H239.817L245.385 56.136H226.889L221.321 71.688H208.073Z" fill="#F1F1F1"/>
<path d="M193.532 55.624L191.036 47.368H209.724L201.02 71.688H164.604C163.452 71.688 162.364 71.56 161.468 71.176C160.572 70.856 159.804 70.344 159.292 69.704C158.716 69.064 158.332 68.296 158.204 67.4C158.076 66.504 158.204 65.416 158.652 64.264L168.636 36.424C169.468 34.12 170.94 32.328 173.052 30.984C175.164 29.704 177.404 29 179.836 29H212.284L210.62 33.672C210.364 34.44 209.98 35.208 209.596 35.976C209.212 36.744 208.764 37.512 208.252 38.152C207.74 38.856 207.164 39.432 206.588 39.88C205.948 40.328 205.372 40.52 204.732 40.52H180.412L173.436 60.168H191.932L193.532 55.624Z" fill="#F1F1F1"/>
<path d="M147.882 37.256L145.386 29H164.074L148.842 71.688H135.594L147.882 37.256Z" fill="#F1F1F1"/>
<path d="M106.232 29H119.48L108.408 60.168H132.728L128.568 71.688H91L106.232 29Z" fill="#F1F1F1"/>
<path d="M7.94434 55.9229L26.2432 52.9229L13.252 76.1387C5.70852 69.9025 0.900462 60.4747 0.900391 49.9229C0.900391 31.1452 16.1227 15.9229 34.9004 15.9229C45.4646 15.9229 57.7758 9.96767 68.8604 0L7.94434 55.9229Z" fill="#FF8A00"/>
<path d="M55.7607 23.0732C63.7563 29.2942 68.9004 39.0076 68.9004 49.9229C68.9003 68.7004 53.678 83.9229 34.9004 83.9229C23.7075 83.9229 10.95 89.8965 0 99.8965C0 99.8965 0.0182273 99.8689 0.0556641 99.8174L59.9443 43.9229L42.1797 46.9229L55.7607 23.0732Z" fill="#F040F5"/>
</svg>
