<svg width="126" height="126" viewBox="0 0 126 126" fill="none" xmlns="http://www.w3.org/2000/svg">
<path d="M89.9561 56.9736L71.6572 59.9736L84.6484 36.7578C92.1919 42.994 96.9999 52.4218 97 62.9736C97 81.7513 81.7777 96.9736 63 96.9736C52.4358 96.9736 40.1246 102.929 29.04 112.896L89.9561 56.9736Z" fill="#25E673"/>
<path d="M42.1396 89.8232C34.1441 83.6022 29 73.8889 29 62.9736C29.0001 44.1961 44.2224 28.9736 63 28.9736C74.1929 28.9736 86.9504 23 97.9004 13C97.9004 13 97.8822 13.0276 97.8447 13.0791L37.9561 68.9736L55.7207 65.9736L42.1396 89.8232Z" fill="#25E673"/>
</svg>
