<svg width="508" height="100" viewBox="0 0 508 100" fill="none" xmlns="http://www.w3.org/2000/svg">
<path d="M405.373 71.69L420.645 29.002L460.861 29.002L459.197 33.674C458.941 34.442 458.557 35.21 458.173 35.978C457.789 36.746 457.341 37.514 456.829 38.154C456.317 38.858 455.741 39.434 455.165 39.882C454.525 40.33 453.949 40.522 453.309 40.522H429.757L428.285 44.618H451.389L447.293 56.138H424.189L422.781 60.17H449.789L445.629 71.69H405.373Z" fill="#121214"/>
<path d="M505.359 33.6719C505.103 34.4398 504.719 35.2077 504.335 35.9756C503.951 36.7435 503.503 37.5114 502.991 38.1514C502.479 38.8554 501.903 39.4319 501.327 39.8799C500.687 40.3279 500.111 40.5195 499.471 40.5195H488.975L477.839 71.6875H464.636L475.727 40.5195H462.308C462.948 40.5195 463.524 40.3278 464.164 39.8799C464.74 39.4319 465.316 38.8554 465.828 38.1514C466.34 37.5114 466.788 36.7435 467.172 35.9756C467.556 35.2077 467.94 34.4398 468.196 33.6719L469.86 29H507.023L505.359 33.6719Z" fill="#121214"/>
<path d="M364.645 29.002H378.997L389.045 52.042H389.493L397.749 29.002H410.997L395.765 71.69H381.621L371.573 48.714H371.125L362.933 71.69H349.685L364.645 29.002Z" fill="#121214"/>
<path d="M312.145 29.002L325.29 29.002L316.522 53.514L343.146 29.002H358.25L336.106 49.738L343.018 71.69H328.426L324.842 60.17L311.85 71.69H296.81L312.145 29.002Z" fill="#121214"/>
<path d="M256.531 71.69C255.379 71.69 254.291 71.562 253.395 71.178C252.499 70.858 251.731 70.346 251.219 69.706C250.643 69.066 250.259 68.298 250.131 67.402C250.003 66.506 250.131 65.418 250.579 64.266L260.563 36.426C261.395 34.122 262.867 32.33 264.979 30.986C267.091 29.706 269.331 29.002 271.763 29.002H303.443L301.779 33.674C301.523 34.442 301.139 35.21 300.755 35.978C300.371 36.746 299.923 37.514 299.411 38.154C298.899 38.858 298.323 39.434 297.747 39.882C297.107 40.33 296.531 40.522 295.891 40.522H272.339L265.363 60.17H292.371L288.211 71.69H256.531Z" fill="#121214"/>
<path d="M251.431 36.426L241.447 64.266C240.551 66.57 239.079 68.426 236.967 69.706C234.855 71.05 232.615 71.69 230.247 71.69H202.407C201.255 71.69 200.167 71.562 199.271 71.178C198.375 70.858 197.607 70.346 197.095 69.706C196.519 69.066 196.135 68.298 196.007 67.402C195.879 66.506 196.007 65.418 196.455 64.266L206.439 36.426C207.271 34.122 208.743 32.33 210.855 30.986C212.967 29.706 215.207 29.002 217.639 29.002H245.479C246.631 29.002 247.655 29.194 248.615 29.514C249.511 29.898 250.279 30.346 250.855 30.986C251.367 31.626 251.751 32.458 251.879 33.354C252.007 34.25 251.815 35.274 251.431 36.426ZM229.735 60.17L236.711 40.522H218.215L211.239 60.17H229.735Z" fill="#121214"/>
<path d="M155.89 29.001H169.228L163.66 44.617H182.156L187.724 29.001H200.972L185.74 71.689H172.492L178.06 56.137H159.564L153.996 71.689H140.748L155.89 29.001Z" fill="#121214"/>
<path d="M103.349 56.137C102.197 56.137 101.109 56.009 100.213 55.625C99.2526 55.305 98.4846 54.793 97.9726 54.153C97.3966 53.513 97.0766 52.745 96.9486 51.849C96.8206 50.953 96.9486 49.865 97.3966 48.713L101.813 36.425C102.645 34.121 104.117 32.329 106.229 30.985C108.341 29.705 110.581 29.001 113.013 29.001H147.381L145.717 33.673C145.461 34.441 145.077 35.209 144.693 35.977C144.309 36.745 143.861 37.513 143.349 38.153C142.837 38.857 142.261 39.433 141.685 39.881C141.045 40.329 140.469 40.521 139.829 40.521H113.589L112.117 44.617H133.237C135.541 44.617 137.333 45.321 138.549 46.601C139.765 47.945 139.957 49.737 139.125 52.041L134.773 64.265C133.877 66.569 132.405 68.425 130.293 69.705C128.181 71.049 125.941 71.689 123.573 71.689H89.2046L93.3646 60.169H123.061L124.469 56.137H103.349Z" fill="#121214"/>
<path d="M118.572 71.6875L84.2043 71.6875L85.8683 67.0155C86.1243 66.2475 86.5083 65.4795 86.8923 64.7115C87.2763 63.9435 87.7243 63.1755 88.2363 62.5355C88.7483 61.8315 89.3243 61.2555 89.9003 60.8075C90.5403 60.3595 91.1163 60.1675 91.7563 60.1675L117.996 60.1675L118.572 71.6875Z" fill="#121214"/>
<path d="M7.94434 55.9229L26.2432 52.9229L13.252 76.1387C5.70852 69.9025 0.900462 60.4747 0.900391 49.9229C0.900391 31.1452 16.1227 15.9229 34.9004 15.9229C45.4646 15.9229 57.7758 9.96767 68.8604 0L7.94434 55.9229Z" fill="#121214"/>
<path d="M55.7607 23.0732C63.7563 29.2942 68.9004 39.0076 68.9004 49.9229C68.9003 68.7004 53.678 83.9229 34.9004 83.9229C23.7075 83.9229 10.95 89.8965 0 99.8965C0 99.8965 0.0182273 99.8689 0.0556641 99.8174L59.9443 43.9229L42.1797 46.9229L55.7607 23.0732Z" fill="#121214"/>
</svg>
