<svg width="647" height="100" viewBox="0 0 647 100" fill="none" xmlns="http://www.w3.org/2000/svg">
<path d="M644.492 33.6719C644.236 34.4398 643.852 35.2077 643.468 35.9756C643.084 36.7435 642.636 37.5114 642.124 38.1514C641.612 38.8554 641.036 39.4319 640.46 39.8799C639.82 40.3279 639.244 40.5195 638.604 40.5195H628.107L616.972 71.6875H603.769L614.859 40.5195H601.44C602.08 40.5195 602.657 40.3278 603.297 39.8799C603.873 39.4319 604.449 38.8554 604.961 38.1514C605.473 37.5114 605.921 36.7435 606.305 35.9756C606.689 35.2077 607.073 34.4398 607.329 33.6719L608.993 29H646.156L644.492 33.6719Z" fill="#F1F1F1"/>
<path d="M545.968 71.69L561.2 29.002H601.456L599.792 33.674C599.536 34.442 599.152 35.21 598.768 35.978C598.384 36.746 597.936 37.514 597.424 38.154C596.912 38.858 596.336 39.434 595.76 39.882C595.12 40.33 594.544 40.522 593.904 40.522H570.352L568.88 44.618H591.984L587.888 56.138H564.784L563.376 60.17H590.384L586.224 71.69H545.968Z" fill="#F1F1F1"/>
<path d="M479.985 29.002H493.233L482.161 60.17H501.481L497.321 71.69H464.753L479.985 29.002Z" fill="#F1F1F1"/>
<path d="M520.672 29.002H533.92L522.848 60.17H542.168L538.008 71.69H505.44L520.672 29.002Z" fill="#F1F1F1"/>
<path d="M437.44 29.002H455.334L458.662 71.69H444.006L443.622 65.674H423.014L418.278 71.69H403.686L437.44 29.002ZM442.022 41.418L432.038 54.09H442.79L442.022 41.418Z" fill="#F1F1F1"/>
<path d="M369.696 53.002L377.824 42.506L376.736 29.002H391.328L392.864 53.002L411.68 29.002H426.336L392.544 71.69H380L378.976 59.338L369.312 71.69H356.768L353.44 29.002H368.032L369.696 53.002Z" fill="#F1F1F1"/>
<path d="M301.6 29.002H314.848L306.08 53.514L332.704 29.002H347.808L325.664 49.738L332.576 71.69H317.984L314.4 60.17L301.344 71.69H286.368L301.6 29.002Z" fill="#F1F1F1"/>
<path d="M247.649 71.69C246.497 71.69 245.409 71.562 244.513 71.178C243.617 70.858 242.849 70.346 242.337 69.706C241.761 69.066 241.377 68.298 241.249 67.402C241.121 66.506 241.249 65.418 241.697 64.266L251.681 36.426C252.513 34.122 253.985 32.33 256.097 30.986C258.209 29.706 260.449 29.002 262.881 29.002H294.561L292.897 33.674C292.641 34.442 292.257 35.21 291.873 35.978C291.489 36.746 291.041 37.514 290.529 38.154C290.017 38.858 289.441 39.434 288.865 39.882C288.225 40.33 287.649 40.522 287.009 40.522H263.457L256.481 60.17H283.489L279.329 71.69H247.649Z" fill="#F1F1F1"/>
<path d="M244.628 36.426L234.644 64.266C233.748 66.57 232.276 68.426 230.164 69.706C228.052 71.05 225.812 71.69 223.444 71.69H195.604C194.452 71.69 193.364 71.562 192.468 71.178C191.572 70.858 190.804 70.346 190.292 69.706C189.716 69.066 189.332 68.298 189.204 67.402C189.076 66.506 189.204 65.418 189.652 64.266L199.636 36.426C200.468 34.122 201.94 32.33 204.052 30.986C206.164 29.706 208.404 29.002 210.836 29.002H238.676C239.828 29.002 240.852 29.194 241.812 29.514C242.708 29.898 243.476 30.346 244.052 30.986C244.564 31.626 244.948 32.458 245.076 33.354C245.204 34.25 245.012 35.274 244.628 36.426ZM222.932 60.17L229.908 40.522H211.412L204.436 60.17H222.932Z" fill="#F1F1F1"/>
<path d="M134.983 71.69L150.215 29.002H163.463L157.895 44.618H176.391L181.959 29.002H195.207L179.975 71.69H166.727L172.295 56.138H153.799L148.231 71.69H134.983Z" fill="#F1F1F1"/>
<path d="M99.144 56.138C97.992 56.138 96.904 56.01 96.008 55.626C95.048 55.306 94.28 54.794 93.768 54.154C93.192 53.514 92.872 52.746 92.744 51.85C92.616 50.954 92.744 49.866 93.192 48.714L97.608 36.426C98.44 34.122 99.912 32.33 102.024 30.986C104.136 29.706 106.376 29.002 108.808 29.002H143.176L141.512 33.674C141.256 34.442 140.872 35.21 140.488 35.978C140.104 36.746 139.656 37.514 139.144 38.154C138.632 38.858 138.056 39.434 137.48 39.882C136.84 40.33 136.264 40.522 135.624 40.522H109.384L107.912 44.618H129.032C131.336 44.618 133.128 45.322 134.344 46.602C135.56 47.946 135.752 49.738 134.92 52.042L130.568 64.266C129.672 66.57 128.2 68.426 126.088 69.706C123.976 71.05 121.736 71.69 119.368 71.69H85L89.16 60.17H118.856L120.264 56.138H99.144Z" fill="#F1F1F1"/>
<path d="M7.94434 55.9229L26.2432 52.9229L13.252 76.1387C5.70852 69.9025 0.900462 60.4747 0.900391 49.9229C0.900391 31.1452 16.1227 15.9229 34.9004 15.9229C45.4646 15.9229 57.7758 9.96767 68.8604 0L7.94434 55.9229Z" fill="#1BCFE0"/>
<path d="M55.7607 23.0732C63.7563 29.2942 68.9004 39.0076 68.9004 49.9229C68.9003 68.7004 53.678 83.9229 34.9004 83.9229C23.7075 83.9229 10.95 89.8965 0 99.8965C0 99.8965 0.0182273 99.8689 0.0556641 99.8174L59.9443 43.9229L42.1797 46.9229L55.7607 23.0732Z" fill="#3A7BFF"/>
</svg>
