<svg width="646" height="100" viewBox="0 0 646 100" fill="none" xmlns="http://www.w3.org/2000/svg">
<path d="M643.492 33.6719C643.236 34.4398 642.852 35.2077 642.468 35.9756C642.084 36.7435 641.636 37.5114 641.124 38.1514C640.612 38.8554 640.036 39.4319 639.46 39.8799C638.82 40.3279 638.244 40.5195 637.604 40.5195H627.107L615.972 71.6875H602.769L613.859 40.5195H600.44C601.08 40.5195 601.657 40.3278 602.297 39.8799C602.873 39.4319 603.449 38.8554 603.961 38.1514C604.473 37.5114 604.921 36.7435 605.305 35.9756C605.689 35.2077 606.073 34.4398 606.329 33.6719L607.993 29H645.156L643.492 33.6719Z" fill="#F1F1F1"/>
<path d="M544.968 71.69L560.2 29.002H600.456L598.792 33.674C598.536 34.442 598.152 35.21 597.768 35.978C597.384 36.746 596.936 37.514 596.424 38.154C595.912 38.858 595.336 39.434 594.76 39.882C594.12 40.33 593.544 40.522 592.904 40.522H569.352L567.88 44.618H590.984L586.888 56.138H563.784L562.376 60.17H589.384L585.224 71.69H544.968Z" fill="#F1F1F1"/>
<path d="M478.985 29.002H492.233L481.161 60.17H500.481L496.321 71.69H463.753L478.985 29.002Z" fill="#F1F1F1"/>
<path d="M519.672 29.002H532.92L521.848 60.17H541.168L537.008 71.69H504.44L519.672 29.002Z" fill="#F1F1F1"/>
<path d="M436.44 29.002H454.334L457.662 71.69H443.006L442.622 65.674H422.014L417.278 71.69H402.686L436.44 29.002ZM441.022 41.418L431.038 54.09H441.79L441.022 41.418Z" fill="#F1F1F1"/>
<path d="M368.696 53.002L376.824 42.506L375.736 29.002H390.328L391.864 53.002L410.68 29.002H425.336L391.544 71.69H379L377.976 59.338L368.312 71.69H355.768L352.44 29.002H367.032L368.696 53.002Z" fill="#F1F1F1"/>
<path d="M216.6 29.002H229.848L221.08 53.514L247.704 29.002H262.808L240.664 49.738L247.576 71.69H232.984L229.4 60.17L216.344 71.69H201.368L216.6 29.002Z" fill="#F1F1F1"/>
<path d="M162.649 71.69C161.497 71.69 160.409 71.562 159.513 71.178C158.617 70.858 157.849 70.346 157.337 69.706C156.761 69.066 156.377 68.298 156.249 67.402C156.121 66.506 156.249 65.418 156.697 64.266L166.681 36.426C167.513 34.122 168.985 32.33 171.097 30.986C173.209 29.706 175.449 29.002 177.881 29.002H209.561L207.897 33.674C207.641 34.442 207.257 35.21 206.873 35.978C206.489 36.746 206.041 37.514 205.529 38.154C205.017 38.858 204.441 39.434 203.865 39.882C203.225 40.33 202.649 40.522 202.009 40.522H178.457L171.481 60.17H198.489L194.329 71.69H162.649Z" fill="#F1F1F1"/>
<path d="M159.628 36.426L149.644 64.266C148.748 66.57 147.276 68.426 145.164 69.706C143.052 71.05 140.812 71.69 138.444 71.69H110.604C109.452 71.69 108.364 71.562 107.468 71.178C106.572 70.858 105.804 70.346 105.292 69.706C104.716 69.066 104.332 68.298 104.204 67.402C104.076 66.506 104.204 65.418 104.652 64.266L114.636 36.426C115.468 34.122 116.94 32.33 119.052 30.986C121.164 29.706 123.404 29.002 125.836 29.002H153.676C154.828 29.002 155.852 29.194 156.812 29.514C157.708 29.898 158.476 30.346 159.052 30.986C159.564 31.626 159.948 32.458 160.076 33.354C160.204 34.25 160.012 35.274 159.628 36.426ZM137.932 60.17L144.908 40.522H126.412L119.436 60.17H137.932Z" fill="#F1F1F1"/>
<path d="M49.9834 71.69L65.2154 29.002H78.4634L72.8954 44.618H91.3914L96.9594 29.002H110.207L94.9754 71.69H81.7274L87.2954 56.138H68.7994L63.2314 71.69H49.9834Z" fill="#F1F1F1"/>
<path d="M14.144 56.138C12.992 56.138 11.904 56.01 11.008 55.626C10.048 55.306 9.28 54.794 8.768 54.154C8.192 53.514 7.872 52.746 7.744 51.85C7.616 50.954 7.744 49.866 8.192 48.714L12.608 36.426C13.44 34.122 14.912 32.33 17.024 30.986C19.136 29.706 21.376 29.002 23.808 29.002H58.176L56.512 33.674C56.256 34.442 55.872 35.21 55.488 35.978C55.104 36.746 54.656 37.514 54.144 38.154C53.632 38.858 53.056 39.434 52.48 39.882C51.84 40.33 51.264 40.522 50.624 40.522H24.384L22.912 44.618H44.032C46.336 44.618 48.128 45.322 49.344 46.602C50.56 47.946 50.752 49.738 49.92 52.042L45.568 64.266C44.672 66.57 43.2 68.426 41.088 69.706C38.976 71.05 36.736 71.69 34.368 71.69H0L4.16 60.17H33.856L35.264 56.138H14.144Z" fill="#F1F1F1"/>
<path d="M276.944 55.9229L295.243 52.9229L282.252 76.1387C274.709 69.9025 269.9 60.4747 269.9 49.9229C269.9 31.1452 285.123 15.9229 303.9 15.9229C314.465 15.9229 326.776 9.96767 337.86 0L276.944 55.9229Z" fill="#1BCFE0"/>
<path d="M324.761 23.0732C332.756 29.2942 337.9 39.0076 337.9 49.9229C337.9 68.7004 322.678 83.9229 303.9 83.9229C292.708 83.9229 279.95 89.8965 269 99.8965C269 99.8965 269.018 99.8689 269.056 99.8174L328.944 43.9229L311.18 46.9229L324.761 23.0732Z" fill="#3A7BFF"/>
</svg>
