<svg width="381" height="100" viewBox="0 0 381 100" fill="none" xmlns="http://www.w3.org/2000/svg">
<path d="M378.492 33.6719C378.236 34.4398 377.852 35.2077 377.468 35.9756C377.084 36.7435 376.636 37.5114 376.124 38.1514C375.612 38.8554 375.036 39.4319 374.46 39.8799C373.82 40.3279 373.244 40.5195 372.604 40.5195H362.107L350.972 71.6875H337.769L348.859 40.5195H335.44C336.08 40.5195 336.657 40.3278 337.297 39.8799C337.873 39.4319 338.449 38.8554 338.961 38.1514C339.473 37.5114 339.921 36.7435 340.305 35.9756C340.689 35.2077 341.073 34.4398 341.329 33.6719L342.993 29H380.156L378.492 33.6719Z" fill="#F1F1F1"/>
<path d="M279.968 71.69L295.2 29.002H335.456L333.792 33.674C333.536 34.442 333.152 35.21 332.768 35.978C332.384 36.746 331.936 37.514 331.424 38.154C330.912 38.858 330.336 39.434 329.76 39.882C329.12 40.33 328.544 40.522 327.904 40.522H304.352L302.88 44.618H325.984L321.888 56.138H298.784L297.376 60.17H324.384L320.224 71.69H279.968Z" fill="#F1F1F1"/>
<path d="M213.985 29.002H227.233L216.161 60.17H235.481L231.321 71.69H198.753L213.985 29.002Z" fill="#F1F1F1"/>
<path d="M254.672 29.002H267.92L256.848 60.17H276.168L272.008 71.69H239.44L254.672 29.002Z" fill="#F1F1F1"/>
<path d="M171.44 29.002H189.334L192.662 71.69H178.006L177.622 65.674H157.014L152.278 71.69H137.686L171.44 29.002ZM176.022 41.418L166.038 54.09H176.79L176.022 41.418Z" fill="#F1F1F1"/>
<path d="M103.696 53.002L111.824 42.506L110.736 29.002H125.328L126.864 53.002L145.68 29.002H160.336L126.544 71.69H114L112.976 59.338L103.312 71.69H90.7684L87.4404 29.002H102.032L103.696 53.002Z" fill="#F1F1F1"/>
<path d="M7.94434 55.9229L26.2432 52.9229L13.252 76.1387C5.70852 69.9025 0.900462 60.4747 0.900391 49.9229C0.900391 31.1452 16.1227 15.9229 34.9004 15.9229C45.4646 15.9229 57.7758 9.96767 68.8604 0L7.94434 55.9229Z" fill="#1BCFE0"/>
<path d="M55.7607 23.0732C63.7563 29.2942 68.9004 39.0076 68.9004 49.9229C68.9003 68.7004 53.678 83.9229 34.9004 83.9229C23.7075 83.9229 10.95 89.8965 0 99.8965C0 99.8965 0.0182273 99.8689 0.0556641 99.8174L59.9443 43.9229L42.1797 46.9229L55.7607 23.0732Z" fill="#3A7BFF"/>
</svg>
