<svg width="373" height="100" viewBox="0 0 373 100" fill="none" xmlns="http://www.w3.org/2000/svg">
<path d="M314.165 71.688L329.397 29H365.813C366.965 29 367.989 29.192 368.949 29.512C369.845 29.896 370.613 30.344 371.189 30.984C371.701 31.624 372.085 32.456 372.213 33.352C372.341 34.248 372.149 35.272 371.765 36.424L369.205 43.592C368.565 45.128 367.733 46.408 366.645 47.496C365.493 48.648 364.213 49.48 362.805 50.056C363.701 50.632 364.405 51.4 364.789 52.424C365.173 53.448 365.173 54.664 364.725 56.008L361.781 64.264C360.885 66.568 359.413 68.424 357.301 69.704C355.189 71.048 352.949 71.688 350.581 71.688H314.165ZM337.077 44.616H355.573L357.045 40.52H338.549L337.077 44.616ZM331.573 60.168H350.069L351.477 56.136H332.981L331.573 60.168Z" fill="#121214"/>
<path d="M298.024 60.168L309.096 29H322.344L309.736 64.264C308.84 66.568 307.368 68.424 305.256 69.704C303.144 71.048 300.904 71.688 298.536 71.688H270.696C269.544 71.688 268.456 71.56 267.56 71.176C266.664 70.856 265.896 70.344 265.384 69.704C264.808 69.064 264.424 68.296 264.296 67.4C264.168 66.504 264.296 65.416 264.744 64.264L277.352 29H290.6L279.528 60.168H298.024Z" fill="#121214"/>
<path d="M210.075 71.688L225.307 29H261.723C262.875 29 263.899 29.192 264.859 29.512C265.755 29.896 266.523 30.344 267.099 30.984C267.611 31.624 267.995 32.456 268.123 33.352C268.251 34.248 268.059 35.272 267.675 36.424L261.659 53.256C261.211 54.408 260.571 55.496 259.803 56.392C259.035 57.288 258.139 58.056 257.115 58.696C256.091 59.336 255.003 59.848 253.851 60.168C252.699 60.552 251.547 60.68 250.395 60.68H227.227L223.323 71.688H210.075ZM231.387 49.16H249.883L252.955 40.52H234.459L231.387 49.16Z" fill="#121214"/>
<path d="M193.94 60.1689H207.188L203.028 71.6889H189.78L193.94 60.1689Z" fill="#121214"/>
<path d="M136.101 71.688L151.333 29H165.413L175.461 52.04H175.909L184.165 29H197.413L182.181 71.688H168.037L157.989 48.712H157.541L149.349 71.688H136.101Z" fill="#121214"/>
<path d="M106.232 29H119.48L108.408 60.168H132.728L128.568 71.688H91L106.232 29Z" fill="#121214"/>
<path d="M7.94434 55.9229L26.2432 52.9229L13.252 76.1387C5.70852 69.9025 0.900462 60.4747 0.900391 49.9229C0.900391 31.1452 16.1227 15.9229 34.9004 15.9229C45.4646 15.9229 57.7758 9.96767 68.8604 0L7.94434 55.9229Z" fill="#FF9900"/>
<path d="M55.7607 23.0732C63.7563 29.2942 68.9004 39.0076 68.9004 49.9229C68.9003 68.7004 53.678 83.9229 34.9004 83.9229C23.7075 83.9229 10.95 89.8965 0 99.8965C0 99.8965 0.0182273 99.8689 0.0556641 99.8174L59.9443 43.9229L42.1797 46.9229L55.7607 23.0732Z" fill="#D75AD7"/>
</svg>
