<svg width="452" height="100" viewBox="0 0 452 100" fill="none" xmlns="http://www.w3.org/2000/svg">
<path d="M381.9 71.688L397.132 29H413.004L417.228 48.2L435.212 29H451.084L435.852 71.688H422.604L430.476 49.608L409.676 71.688H408.076L403.02 49.608L395.148 71.688H381.9Z" fill="#121214"/>
<path d="M367.679 60.168L378.751 29H391.999L379.391 64.264C378.495 66.568 377.023 68.424 374.911 69.704C372.799 71.048 370.559 71.688 368.191 71.688H340.351C339.199 71.688 338.111 71.56 337.215 71.176C336.319 70.856 335.551 70.344 335.039 69.704C334.463 69.064 334.079 68.296 333.951 67.4C333.823 66.504 333.951 65.416 334.399 64.264L347.007 29H360.255L349.183 60.168H367.679Z" fill="#121214"/>
<path d="M296.85 40.52L300.946 29H341.906L340.242 33.672C339.986 34.44 339.602 35.208 339.218 35.976C338.834 36.744 338.386 37.512 337.874 38.152C337.362 38.856 336.786 39.432 336.21 39.88C335.57 40.328 334.994 40.52 334.354 40.52H323.922L312.786 71.688H299.538L310.674 40.52H296.85Z" fill="#121214"/>
<path d="M248.914 71.688C247.762 71.688 246.674 71.56 245.778 71.176C244.882 70.856 244.114 70.344 243.602 69.704C243.026 69.064 242.642 68.296 242.514 67.4C242.386 66.504 242.514 65.416 242.962 64.264L252.946 36.424C253.778 34.12 255.25 32.328 257.362 30.984C259.474 29.704 261.714 29 264.146 29H295.826L294.162 33.672C293.906 34.44 293.522 35.208 293.138 35.976C292.754 36.744 292.306 37.512 291.794 38.152C291.282 38.856 290.706 39.432 290.13 39.88C289.49 40.328 288.914 40.52 288.274 40.52H264.722L257.746 60.168H284.754L280.594 71.688H248.914Z" fill="#121214"/>
<path d="M201.419 37.256L198.923 29H218.443L228.491 52.04H228.939L237.195 29H250.443L235.211 71.688H221.067L211.019 48.712H210.571L202.379 71.688H189.131L201.419 37.256Z" fill="#121214"/>
<path d="M157.078 37.256L154.582 29H181.526L184.854 71.688H170.198L169.814 65.672H149.206L144.47 71.688H129.878L157.078 37.256ZM168.214 41.416L158.23 54.088H168.982L168.214 41.416Z" fill="#121214"/>
<path d="M97.0444 56.136C95.8924 56.136 94.8044 56.008 93.9084 55.624C92.9484 55.304 92.1804 54.792 91.6684 54.152C91.0924 53.512 90.7724 52.744 90.6444 51.848C90.5164 50.952 90.6444 49.864 91.0924 48.712L95.5084 36.424C96.3404 34.12 97.8124 32.328 99.9244 30.984C102.036 29.704 104.276 29 106.708 29H141.076L139.412 33.672C139.156 34.44 138.772 35.208 138.388 35.976C138.004 36.744 137.556 37.512 137.044 38.152C136.532 38.856 135.956 39.432 135.38 39.88C134.74 40.328 134.164 40.52 133.524 40.52H107.284L105.812 44.616H126.932C129.236 44.616 131.028 45.32 132.244 46.6C133.46 47.944 133.652 49.736 132.82 52.04L128.468 64.264C127.572 66.568 126.1 68.424 123.988 69.704C121.876 71.048 119.636 71.688 117.268 71.688H82.9004L87.0604 60.168H116.756L118.164 56.136H97.0444Z" fill="#121214"/>
<path d="M60.9561 43.9736L42.6572 46.9736L55.6484 23.7578C63.1919 29.994 67.9999 39.4218 68 49.9736C68 68.7513 52.7777 83.9736 34 83.9736C23.4358 83.9736 11.1246 89.9288 0.0400391 99.8965L60.9561 43.9736Z" fill="#4FD27A"/>
<path d="M13.1396 76.8232C5.14412 70.6022 0 60.8889 0 49.9736C0.0001297 31.1961 15.2224 15.9736 34 15.9736C45.1929 15.9736 57.9504 10 68.9004 0C68.9004 0 68.8822 0.027626 68.8447 0.0791016L8.95605 55.9736L26.7207 52.9736L13.1396 76.8232Z" fill="#4FD27A"/>
</svg>
