<svg width="126" height="126" viewBox="0 0 126 126" fill="none" xmlns="http://www.w3.org/2000/svg">
<path d="M90.0557 57.0771L71.7568 60.0771L84.748 36.8613C92.2915 43.0975 97.0995 52.5253 97.0996 63.0771C97.0996 81.8548 81.8773 97.0771 63.0996 97.0771C52.5354 97.0771 40.2242 103.032 29.1396 113L90.0557 57.0771Z" fill="#4FD27A"/>
<path d="M42.2393 89.9268C34.2437 83.7058 29.0996 73.9924 29.0996 63.0771C29.0997 44.2996 44.322 29.0771 63.0996 29.0771C74.2925 29.0771 87.05 23.1035 98 13.1035C98 13.1035 97.9818 13.1311 97.9443 13.1826L38.0557 69.0771L55.8203 66.0771L42.2393 89.9268Z" fill="#4FD27A"/>
</svg>
