<svg width="646" height="100" viewBox="0 0 646 100" fill="none" xmlns="http://www.w3.org/2000/svg">
<path d="M644.052 33.6719C643.796 34.4398 643.411 35.2077 643.027 35.9756C642.643 36.7435 642.196 37.5114 641.684 38.1514C641.172 38.8554 640.596 39.4319 640.02 39.8799C639.38 40.3279 638.803 40.5195 638.163 40.5195H627.667L616.531 71.6875H603.328L614.419 40.5195H601C601.64 40.5195 602.216 40.3278 602.856 39.8799C603.432 39.4319 604.009 38.8554 604.521 38.1514C605.032 37.5114 605.48 36.7435 605.864 35.9756C606.248 35.2077 606.633 34.4398 606.889 33.6719L608.553 29H645.716L644.052 33.6719Z" fill="#121214"/>
<path d="M545.527 71.69L560.759 29.002H601.015L599.351 33.674C599.095 34.442 598.711 35.21 598.327 35.978C597.943 36.746 597.495 37.514 596.983 38.154C596.471 38.858 595.895 39.434 595.319 39.882C594.679 40.33 594.103 40.522 593.463 40.522H569.911L568.439 44.618H591.543L587.447 56.138H564.343L562.935 60.17H589.943L585.783 71.69H545.527Z" fill="#121214"/>
<path d="M479.544 29.002H492.793L481.72 60.17H501.04L496.88 71.69H464.312L479.544 29.002Z" fill="#121214"/>
<path d="M520.232 29.002H533.48L522.408 60.17H541.728L537.568 71.69H505L520.232 29.002Z" fill="#121214"/>
<path d="M437 29.002H454.893L458.221 71.69H443.565L443.181 65.674H422.573L417.837 71.69H403.245L437 29.002ZM441.581 41.418L431.597 54.09H442.349L441.581 41.418Z" fill="#121214"/>
<path d="M369.256 53.002L377.384 42.506L376.296 29.002H390.888L392.424 53.002L411.24 29.002H425.896L392.104 71.69H379.56L378.536 59.338L368.872 71.69H356.328L353 29.002H367.592L369.256 53.002Z" fill="#121214"/>
<path d="M301.16 29.002H314.408L305.64 53.514L332.264 29.002H347.368L325.224 49.738L332.136 71.69H317.544L313.96 60.17L300.904 71.69H285.928L301.16 29.002Z" fill="#121214"/>
<path d="M247.209 71.69C246.057 71.69 244.969 71.562 244.073 71.178C243.177 70.858 242.409 70.346 241.897 69.706C241.321 69.066 240.937 68.298 240.809 67.402C240.681 66.506 240.809 65.418 241.257 64.266L251.241 36.426C252.073 34.122 253.545 32.33 255.657 30.986C257.769 29.706 260.009 29.002 262.441 29.002H294.121L292.457 33.674C292.201 34.442 291.817 35.21 291.433 35.978C291.049 36.746 290.601 37.514 290.089 38.154C289.577 38.858 289.001 39.434 288.425 39.882C287.785 40.33 287.209 40.522 286.569 40.522H263.017L256.041 60.17H283.049L278.889 71.69H247.209Z" fill="#121214"/>
<path d="M244.188 36.426L234.204 64.266C233.308 66.57 231.836 68.426 229.724 69.706C227.612 71.05 225.372 71.69 223.004 71.69H195.164C194.012 71.69 192.924 71.562 192.028 71.178C191.132 70.858 190.364 70.346 189.852 69.706C189.276 69.066 188.892 68.298 188.764 67.402C188.636 66.506 188.764 65.418 189.212 64.266L199.196 36.426C200.028 34.122 201.5 32.33 203.612 30.986C205.724 29.706 207.964 29.002 210.396 29.002H238.236C239.388 29.002 240.412 29.194 241.372 29.514C242.268 29.898 243.036 30.346 243.612 30.986C244.124 31.626 244.508 32.458 244.636 33.354C244.764 34.25 244.572 35.274 244.188 36.426ZM222.492 60.17L229.468 40.522H210.972L203.996 60.17H222.492Z" fill="#121214"/>
<path d="M134.543 71.69L149.775 29.002H163.023L157.455 44.618H175.951L181.519 29.002H194.767L179.535 71.69H166.287L171.855 56.138H153.359L147.791 71.69H134.543Z" fill="#121214"/>
<path d="M98.7036 56.138C97.5516 56.138 96.4636 56.01 95.5676 55.626C94.6076 55.306 93.8396 54.794 93.3276 54.154C92.7516 53.514 92.4316 52.746 92.3036 51.85C92.1756 50.954 92.3036 49.866 92.7516 48.714L97.1676 36.426C97.9996 34.122 99.4716 32.33 101.584 30.986C103.696 29.706 105.936 29.002 108.368 29.002H142.736L141.072 33.674C140.816 34.442 140.432 35.21 140.048 35.978C139.664 36.746 139.216 37.514 138.704 38.154C138.192 38.858 137.616 39.434 137.04 39.882C136.4 40.33 135.824 40.522 135.184 40.522H108.944L107.472 44.618H128.592C130.896 44.618 132.688 45.322 133.904 46.602C135.12 47.946 135.312 49.738 134.48 52.042L130.128 64.266C129.232 66.57 127.76 68.426 125.648 69.706C123.536 71.05 121.296 71.69 118.928 71.69H84.5596L88.7196 60.17H118.416L119.824 56.138H98.7036Z" fill="#121214"/>
<path d="M7.94434 55.9229L26.2432 52.9229L13.252 76.1387C5.70852 69.9025 0.900462 60.4747 0.900391 49.9229C0.900391 31.1452 16.1227 15.9229 34.9004 15.9229C45.4646 15.9229 57.7758 9.96767 68.8604 0L7.94434 55.9229Z" fill="#4FD6F0"/>
<path d="M55.7607 23.0732C63.7563 29.2942 68.9004 39.0076 68.9004 49.9229C68.9003 68.7004 53.678 83.9229 34.9004 83.9229C23.7075 83.9229 10.95 89.8965 0 99.8965C0 99.8965 0.0182273 99.8689 0.0556641 99.8174L59.9443 43.9229L42.1797 46.9229L55.7607 23.0732Z" fill="#2E6DCE"/>
</svg>
