<svg width="126" height="126" viewBox="0 0 126 126" fill="none" xmlns="http://www.w3.org/2000/svg">
<path d="M36.9443 68.9229L55.2432 65.9229L42.252 89.1387C34.7085 82.9025 29.9005 73.4747 29.9004 62.9229C29.9004 44.1452 45.1227 28.9229 63.9004 28.9229C74.4646 28.9229 86.7758 22.9677 97.8604 13L36.9443 68.9229Z" fill="#4FD6F0"/>
<path d="M84.7607 36.0732C92.7563 42.2942 97.9004 52.0076 97.9004 62.9229C97.9003 81.7004 82.678 96.9229 63.9004 96.9229C52.7075 96.9229 39.95 102.896 29 112.896C29 112.896 29.0182 112.869 29.0557 112.817L88.9443 56.9229L71.1797 59.9229L84.7607 36.0732Z" fill="#2E6DCE"/>
</svg>
