<svg width="380" height="100" viewBox="0 0 380 100" fill="none" xmlns="http://www.w3.org/2000/svg">
<path d="M378.052 33.6719C377.796 34.4398 377.411 35.2077 377.027 35.9756C376.643 36.7435 376.196 37.5114 375.684 38.1514C375.172 38.8554 374.596 39.4319 374.02 39.8799C373.38 40.3279 372.803 40.5195 372.163 40.5195H361.667L350.531 71.6875H337.328L348.419 40.5195H335C335.64 40.5195 336.216 40.3278 336.856 39.8799C337.432 39.4319 338.009 38.8554 338.521 38.1514C339.032 37.5114 339.48 36.7435 339.864 35.9756C340.248 35.2077 340.633 34.4398 340.889 33.6719L342.553 29H379.716L378.052 33.6719Z" fill="#121214"/>
<path d="M279.527 71.69L294.759 29.002H335.015L333.351 33.674C333.095 34.442 332.711 35.21 332.327 35.978C331.943 36.746 331.495 37.514 330.983 38.154C330.471 38.858 329.895 39.434 329.319 39.882C328.679 40.33 328.103 40.522 327.463 40.522H303.911L302.439 44.618H325.543L321.447 56.138H298.343L296.935 60.17H323.943L319.783 71.69H279.527Z" fill="#121214"/>
<path d="M213.544 29.002H226.793L215.72 60.17H235.04L230.88 71.69H198.312L213.544 29.002Z" fill="#121214"/>
<path d="M254.232 29.002H267.48L256.408 60.17H275.728L271.568 71.69H239L254.232 29.002Z" fill="#121214"/>
<path d="M171 29.002H188.893L192.221 71.69H177.565L177.181 65.674H156.573L151.837 71.69H137.245L171 29.002ZM175.581 41.418L165.597 54.09H176.349L175.581 41.418Z" fill="#121214"/>
<path d="M103.256 53.002L111.384 42.506L110.296 29.002H124.888L126.424 53.002L145.24 29.002H159.896L126.104 71.69H113.56L112.536 59.338L102.872 71.69H90.328L87 29.002H101.592L103.256 53.002Z" fill="#121214"/>
<path d="M7.94434 55.9229L26.2432 52.9229L13.252 76.1387C5.70852 69.9025 0.900462 60.4747 0.900391 49.9229C0.900391 31.1452 16.1227 15.9229 34.9004 15.9229C45.4646 15.9229 57.7758 9.96767 68.8604 0L7.94434 55.9229Z" fill="#4FD6F0"/>
<path d="M55.7607 23.0732C63.7563 29.2942 68.9004 39.0076 68.9004 49.9229C68.9003 68.7004 53.678 83.9229 34.9004 83.9229C23.7075 83.9229 10.95 89.8965 0 99.8965C0 99.8965 0.0182273 99.8689 0.0556641 99.8174L59.9443 43.9229L42.1797 46.9229L55.7607 23.0732Z" fill="#2E6DCE"/>
</svg>
