<svg width="726" height="100" viewBox="0 0 726 100" fill="none" xmlns="http://www.w3.org/2000/svg">
<path d="M7.94434 55.9229L26.2432 52.9229L13.252 76.1387C5.70852 69.9025 0.900462 60.4747 0.900391 49.9229C0.900391 31.1452 16.1227 15.9229 34.9004 15.9229C45.4646 15.9229 57.7758 9.96767 68.8604 0L7.94434 55.9229Z" fill="#FF3366"/>
<path d="M55.7607 23.0732C63.7563 29.2942 68.9004 39.0076 68.9004 49.9229C68.9003 68.7004 53.678 83.9229 34.9004 83.9229C23.7075 83.9229 10.95 89.8965 0 99.8965C0 99.8965 0.0182273 99.8689 0.0556641 99.8174L59.9443 43.9229L42.1797 46.9229L55.7607 23.0732Z" fill="#FF3366"/>
<path d="M703.41 60.168L710.386 40.52H691.89L684.914 60.168H703.41ZM725.106 36.424L715.122 64.264C714.226 66.568 712.754 68.424 710.642 69.704C708.53 71.048 706.29 71.688 703.922 71.688H676.082C674.93 71.688 673.842 71.56 672.946 71.176C672.05 70.856 671.282 70.344 670.77 69.704C670.194 69.064 669.81 68.296 669.682 67.4C669.554 66.504 669.682 65.416 670.13 64.264L680.114 36.424C680.946 34.12 682.418 32.328 684.53 30.984C686.642 29.704 688.882 29 691.314 29H719.154C720.306 29 721.33 29.192 722.29 29.512C723.186 29.896 723.954 30.344 724.53 30.984C725.042 31.624 725.426 32.456 725.554 33.352C725.682 34.248 725.49 35.272 725.106 36.424Z" fill="#121214"/>
<path d="M620.21 71.688L635.442 29H675.698L674.034 33.672C673.778 34.44 673.394 35.208 673.01 35.976C672.626 36.744 672.178 37.512 671.666 38.152C671.154 38.856 670.578 39.432 670.002 39.88C669.362 40.328 668.786 40.52 668.146 40.52H644.594L643.122 44.616H666.226L662.13 56.136H639.026L637.618 60.168H664.626L660.466 71.688H620.21Z" fill="#121214"/>
<path d="M625.765 36.424L615.781 64.264C614.885 66.568 613.413 68.424 611.301 69.704C609.189 71.048 606.949 71.688 604.581 71.688H568.165L583.397 29H619.813C620.965 29 621.989 29.192 622.949 29.512C623.845 29.896 624.613 30.344 625.189 30.984C625.701 31.624 626.085 32.456 626.213 33.352C626.341 34.248 626.149 35.272 625.765 36.424ZM604.069 60.168L611.045 40.52H592.549L585.573 60.168H604.069Z" fill="#121214"/>
<path d="M547.81 71.688L563.042 29H576.29L561.058 71.688H547.81Z" fill="#121214"/>
<path d="M518.986 58.888L542.218 29H556.874L523.082 71.688H505.738L502.41 29H517.002L518.986 58.888Z" fill="#121214"/>
<path d="M480.94 60.1689H494.188L490.028 71.6889H476.78L480.94 60.1689Z" fill="#121214"/>
<path d="M462.239 55.624L459.743 47.368H478.431L469.727 71.688H433.311C432.159 71.688 431.071 71.56 430.175 71.176C429.279 70.856 428.511 70.344 427.999 69.704C427.423 69.064 427.039 68.296 426.911 67.4C426.783 66.504 426.911 65.416 427.359 64.264L437.343 36.424C438.175 34.12 439.647 32.328 441.759 30.984C443.871 29.704 446.111 29 448.543 29H480.991L479.327 33.672C479.071 34.44 478.687 35.208 478.303 35.976C477.919 36.744 477.471 37.512 476.959 38.152C476.447 38.856 475.871 39.432 475.295 39.88C474.655 40.328 474.079 40.52 473.439 40.52H449.119L442.143 60.168H460.639L462.239 55.624Z" fill="#121214"/>
<path d="M371.628 71.688L386.86 29H400.94L410.988 52.04H411.436L419.692 29H432.94L417.708 71.688H403.564L393.516 48.712H393.068L384.876 71.688H371.628Z" fill="#121214"/>
<path d="M351.271 71.688L366.503 29H379.751L364.52 71.688H351.271Z" fill="#121214"/>
<path d="M298.101 71.688L313.333 29H327.413L337.461 52.04H337.909L346.165 29H359.413L344.181 71.688H330.037L319.989 48.712H319.541L311.349 71.688H298.101Z" fill="#121214"/>
<path d="M261.254 40.52L265.35 29H306.31L304.646 33.672C304.39 34.44 304.006 35.208 303.622 35.976C303.238 36.744 302.79 37.512 302.278 38.152C301.766 38.856 301.19 39.432 300.614 39.88C299.974 40.328 299.398 40.52 298.758 40.52H288.326L277.19 71.688H263.942L275.078 40.52H261.254Z" fill="#121214"/>
<path d="M198.073 71.688L213.305 29H226.553L220.985 44.616H239.481L245.049 29H258.297L243.065 71.688H229.817L235.385 56.136H216.889L211.321 71.688H198.073Z" fill="#121214"/>
<path d="M183.532 55.624L181.036 47.368H199.724L191.02 71.688H154.604C153.452 71.688 152.364 71.56 151.468 71.176C150.572 70.856 149.804 70.344 149.292 69.704C148.716 69.064 148.332 68.296 148.204 67.4C148.076 66.504 148.204 65.416 148.652 64.264L158.636 36.424C159.468 34.12 160.94 32.328 163.052 30.984C165.164 29.704 167.404 29 169.836 29H202.284L200.62 33.672C200.364 34.44 199.98 35.208 199.596 35.976C199.212 36.744 198.764 37.512 198.252 38.152C197.74 38.856 197.164 39.432 196.588 39.88C195.948 40.328 195.372 40.52 194.732 40.52H170.412L163.436 60.168H181.932L183.532 55.624Z" fill="#121214"/>
<path d="M137.958 37.256L135.462 29H154.15L138.918 71.688H125.67L137.958 37.256Z" fill="#121214"/>
<path d="M96.232 29H109.48L98.408 60.168H122.728L118.568 71.688H81L96.232 29Z" fill="#121214"/>
</svg>
