<svg width="435" height="100" viewBox="0 0 435 100" fill="none" xmlns="http://www.w3.org/2000/svg">
<path d="M98.232 29H111.48L100.408 60.168H124.728L120.568 71.688H83L98.232 29Z" fill="#121214"/>
<path d="M412.41 60.168L419.386 40.52H400.89L393.914 60.168H412.41ZM434.106 36.424L424.122 64.264C423.226 66.568 421.754 68.424 419.642 69.704C417.53 71.048 415.29 71.688 412.922 71.688H385.082C383.93 71.688 382.842 71.56 381.946 71.176C381.05 70.856 380.282 70.344 379.77 69.704C379.194 69.064 378.81 68.296 378.682 67.4C378.554 66.504 378.682 65.416 379.13 64.264L389.114 36.424C389.946 34.12 391.418 32.328 393.53 30.984C395.642 29.704 397.882 29 400.314 29H428.154C429.306 29 430.33 29.192 431.29 29.512C432.186 29.896 432.954 30.344 433.53 30.984C434.042 31.624 434.426 32.456 434.554 33.352C434.682 34.248 434.49 35.272 434.106 36.424Z" fill="#121214"/>
<path d="M329.21 71.688L344.442 29H384.698L383.034 33.672C382.778 34.44 382.394 35.208 382.01 35.976C381.626 36.744 381.178 37.512 380.666 38.152C380.154 38.856 379.578 39.432 379.002 39.88C378.362 40.328 377.786 40.52 377.146 40.52H353.594L352.122 44.616H375.226L371.13 56.136H348.026L346.618 60.168H373.626L369.466 71.688H329.21Z" fill="#121214"/>
<path d="M334.765 36.424L324.781 64.264C323.885 66.568 322.413 68.424 320.301 69.704C318.189 71.048 315.949 71.688 313.581 71.688H277.165L292.397 29H328.813C329.965 29 330.989 29.192 331.949 29.512C332.845 29.896 333.613 30.344 334.189 30.984C334.701 31.624 335.085 32.456 335.213 33.352C335.341 34.248 335.149 35.272 334.765 36.424ZM313.069 60.168L320.045 40.52H301.549L294.573 60.168H313.069Z" fill="#121214"/>
<path d="M256.81 71.688L272.042 29H285.29L270.058 71.688H256.81Z" fill="#121214"/>
<path d="M227.986 58.888L251.218 29H265.874L232.082 71.688H214.738L211.41 29H226.002L227.986 58.888Z" fill="#121214"/>
<path d="M189.94 60.1689H203.188L199.028 71.6889H185.78L189.94 60.1689Z" fill="#121214"/>
<path d="M128.628 71.688L143.86 29H157.94L167.988 52.04H168.436L176.692 29H189.94L174.708 71.688H160.564L150.516 48.712H150.068L141.876 71.688H128.628Z" fill="#121214"/>
<path d="M7.94434 55.9229L26.2432 52.9229L13.252 76.1387C5.70852 69.9025 0.900462 60.4747 0.900391 49.9229C0.900391 31.1452 16.1227 15.9229 34.9004 15.9229C45.4646 15.9229 57.7758 9.96767 68.8604 0L7.94434 55.9229Z" fill="#FF3366"/>
<path d="M55.7607 23.0732C63.7563 29.2942 68.9004 39.0076 68.9004 49.9229C68.9003 68.7004 53.678 83.9229 34.9004 83.9229C23.7075 83.9229 10.95 89.8965 0 99.8965C0 99.8965 0.0182273 99.8689 0.0556641 99.8174L59.9443 43.9229L42.1797 46.9229L55.7607 23.0732Z" fill="#FF3366"/>
</svg>
