<svg width="437" height="100" viewBox="0 0 437 100" fill="none" xmlns="http://www.w3.org/2000/svg">
<path d="M100.232 29H113.48L102.408 60.168H126.728L122.568 71.688H85L100.232 29Z" fill="#F1F1F1"/>
<path d="M414.41 60.168L421.386 40.52H402.89L395.914 60.168H414.41ZM436.106 36.424L426.122 64.264C425.226 66.568 423.754 68.424 421.642 69.704C419.53 71.048 417.29 71.688 414.922 71.688H387.082C385.93 71.688 384.842 71.56 383.946 71.176C383.05 70.856 382.282 70.344 381.77 69.704C381.194 69.064 380.81 68.296 380.682 67.4C380.554 66.504 380.682 65.416 381.13 64.264L391.114 36.424C391.946 34.12 393.418 32.328 395.53 30.984C397.642 29.704 399.882 29 402.314 29H430.154C431.306 29 432.33 29.192 433.29 29.512C434.186 29.896 434.954 30.344 435.53 30.984C436.042 31.624 436.426 32.456 436.554 33.352C436.682 34.248 436.49 35.272 436.106 36.424Z" fill="#F1F1F1"/>
<path d="M331.21 71.688L346.442 29H386.698L385.034 33.672C384.778 34.44 384.394 35.208 384.01 35.976C383.626 36.744 383.178 37.512 382.666 38.152C382.154 38.856 381.578 39.432 381.002 39.88C380.362 40.328 379.786 40.52 379.146 40.52H355.594L354.122 44.616H377.226L373.13 56.136H350.026L348.618 60.168H375.626L371.466 71.688H331.21Z" fill="#F1F1F1"/>
<path d="M336.765 36.424L326.781 64.264C325.885 66.568 324.413 68.424 322.301 69.704C320.189 71.048 317.949 71.688 315.581 71.688H279.165L294.397 29H330.813C331.965 29 332.989 29.192 333.949 29.512C334.845 29.896 335.613 30.344 336.189 30.984C336.701 31.624 337.085 32.456 337.213 33.352C337.341 34.248 337.149 35.272 336.765 36.424ZM315.069 60.168L322.045 40.52H303.549L296.573 60.168H315.069Z" fill="#F1F1F1"/>
<path d="M258.81 71.688L274.042 29H287.29L272.058 71.688H258.81Z" fill="#F1F1F1"/>
<path d="M229.986 58.888L253.218 29H267.874L234.082 71.688H216.738L213.41 29H228.002L229.986 58.888Z" fill="#F1F1F1"/>
<path d="M191.94 60.1689H205.188L201.028 71.6889H187.78L191.94 60.1689Z" fill="#F1F1F1"/>
<path d="M130.628 71.688L145.86 29H159.94L169.988 52.04H170.436L178.692 29H191.94L176.708 71.688H162.564L152.516 48.712H152.068L143.876 71.688H130.628Z" fill="#F1F1F1"/>
<path d="M7.94434 55.9229L26.2432 52.9229L13.252 76.1387C5.70852 69.9025 0.900462 60.4747 0.900391 49.9229C0.900391 31.1452 16.1227 15.9229 34.9004 15.9229C45.4646 15.9229 57.7758 9.96767 68.8604 0L7.94434 55.9229Z" fill="#FF0050"/>
<path d="M55.7607 23.0732C63.7563 29.2942 68.9004 39.0076 68.9004 49.9229C68.9003 68.7004 53.678 83.9229 34.9004 83.9229C23.7075 83.9229 10.95 89.8965 0 99.8965C0 99.8965 0.0182273 99.8689 0.0556641 99.8174L59.9443 43.9229L42.1797 46.9229L55.7607 23.0732Z" fill="#FF0050"/>
</svg>
